<svg xmlns="http://www.w3.org/2000/svg" viewBox="0 0 24 24">
<g fill="none" stroke="#7b89a8" stroke-width="2" stroke-linecap="round" stroke-linejoin="round" data-name="&lt;Group&gt;">
<path d="M22.4 13.38A10.43 10.43 0 0 0 12 1.5a10.54 10.54 0 0 0-1.38.1 6.5 6.5 0 0 0-9 9A10.43 10.43 0 0 0 12 22.5a10.54 10.54 0 0 0 1.38-.1 6.5 6.5 0 0 0 9-9Z" data-name="&lt;Path&gt;"/><path d="M12 19.5c-3.14 0-5.5-1.46-5.5-3.4a1 1 0 0 1 1-1 1.07 1.07 0 0 1 1 1c.11.63 1.33 1.4 3.5 1.4s3.5-1.05 3.5-2c0-1.74-1.19-2.25-3.89-3C9.33 11.92 6.5 11.16 6.5 8c0-2 2.2-3.5 5-3.5s5 1.29 5 3a1 1 0 0 1-2 0c0-.25-1.06-1-3-1-1.72 0-3 .79-3 1.5 0 1.47 1.1 1.92 3.62 2.6 2.27.61 5.38 1.44 5.38 4.9 0 2.24-2.42 4-5.5 4Z" data-name="&lt;Path&gt;"/>
</g>
</svg>